<?xml version="1.0" standalone="no"?>
<!DOCTYPE svg PUBLIC "-//W3C//DTD SVG 20010904//EN"
 "http://www.w3.org/TR/2001/REC-SVG-20010904/DTD/svg10.dtd">
<svg version="1.0" xmlns="http://www.w3.org/2000/svg"
 width="233.000000pt" height="233.000000pt" viewBox="0 0 233.000000 233.000000"
 preserveAspectRatio="xMidYMid meet">
<metadata>
Created by potrace 1.14, written by Peter Selinger 2001-2017
</metadata>
<g transform="translate(0.000000,233.000000) scale(0.100000,-0.100000)"
fill="#000000" stroke="none">
<path d="M736 1769 c-22 -5 -63 -23 -92 -39 -205 -118 -228 -391 -52 -603 55
-67 114 -120 243 -222 132 -104 199 -174 268 -277 29 -43 54 -78 57 -78 3 1
28 35 57 78 69 103 133 168 286 291 187 150 262 231 307 334 27 61 34 101 34
192 0 100 -26 158 -100 231 -75 73 -151 102 -264 100 -72 -2 -94 -6 -143 -31
-63 -31 -127 -94 -154 -150 -9 -19 -19 -35 -22 -35 -3 0 -15 18 -25 40 -25 52
-100 122 -162 151 -55 25 -173 34 -238 18z"/>
<path d="M84 171 c-2 -2 -4 -42 -4 -88 l0 -83 1080 0 1080 0 0 85 c0 81 -1 85
-22 86 -137 3 -2131 3 -2134 0z"/>
</g>
</svg>
